# xmcd
#
# Track frame offsets: 
#        150
#        15225
#        29779
#        46606
#        59935
#        71898
#        84432
#        99093
#        111411
#        128663
#        138867
#        153959
#
# Disc length: 2276 seconds
#
# Revision: 0
# Processed by: cddbd v1.5.2PL0 Copyright (c) Steve Scherf et al.
# Submitted via: ExactAudioCopyFreeDBPlugin 1.0
#
DISCID=9a08e20c
DTITLE=Pierre Perret - Celui d'Alice
DYEAR=2011
DGENRE=Variété française
TTITLE0=Papa maman
TTITLE1=Ma nouvelle adresse
TTITLE2=Et vous
TTITLE3=Celui d'Alice
TTITLE4=J'ai dîné à London
TTITLE5=Sam'di chez l'Amiral
TTITLE6=Je suis de Castelsarrasin
TTITLE7=Françouèse
TTITLE8=La sieste
TTITLE9=J'ai faim
TTITLE10=On n'a pas trouvé la mer
TTITLE11=J'aime
EXTD=Intégrale 1957 - 2011
EXTT0=
EXTT1=
EXTT2=
EXTT3=
EXTT4=
EXTT5=
EXTT6=
EXTT7=
EXTT8=
EXTT9=
EXTT10=
EXTT11=
PLAYORDER=
